# xmcd
#
# Track frame offsets: 
#        150
#        22137
#        37335
#        50372
#        68203
#        83248
#        102361
#        116618
#        135692
#        149769
#
# Disc length: 2237 seconds
#
# Revision: 0
# Processed by: cddbd v1.5.1PL0 Copyright (c) Steve Scherf et al.
# Submitted via: ExactAudioCopy v0.95a5
#
DISCID=9908bb0a
DTITLE=Rosa León - Rosa se está buscando en el espejo
DYEAR=1983
DGENRE=Ballad
TTITLE0=Volver a los 17
TTITLE1=Canción de cuna para Julia
TTITLE2=Somos pareja
TTITLE3=La medida del tiempo
TTITLE4=Si eres tú (Soneto de amor)
TTITLE5=¡Ay paloma!
TTITLE6=Somos dos medias partes
TTITLE7=He pintado tu nombre
TTITLE8=Rosa se está buscando en el espejo
TTITLE9=Los años de casada
EXTD=
EXTT0=
EXTT1=
EXTT2=
EXTT3=
EXTT4=
EXTT5=
EXTT6=
EXTT7=
EXTT8=
EXTT9=
PLAYORDER=
